<svg xmlns="http://www.w3.org/2000/svg" xmlns:xlink="http://www.w3.org/1999/xlink" width="500" zoomAndPan="magnify" viewBox="0 0 375 374.999991" height="500" preserveAspectRatio="xMidYMid meet" version="1.0"><path fill="#f2f2f2" d="M 375 187.5 C 375 291.050781 291.050781 375 187.5 375 C 91.960938 375 13.109375 303.546875 1.484375 211.152344 C 0.503906 203.410156 0 195.511719 0 187.5 C 0 172.820312 1.683594 158.53125 4.875 144.824219 C 24.191406 61.835938 98.625 0 187.5 0 C 276.152344 0 350.441406 61.527344 369.972656 144.214844 C 372.535156 155.027344 374.148438 166.199219 374.742188 177.644531 C 374.914062 180.910156 375 184.191406 375 187.5 Z M 375 187.5 " fill-opacity="1" fill-rule="nonzero"/><path fill="#3b8739" d="M 178.121094 202.554688 L 178.121094 153.808594 L 135.902344 129.429688 L 93.683594 153.808594 L 93.683594 202.554688 L 135.902344 226.929688 Z M 178.121094 202.554688 " fill-opacity="1" fill-rule="nonzero"/><path fill="#333333" d="M 344.386719 195.160156 L 371.902344 211.050781 L 344.386719 226.933594 L 302.175781 202.558594 L 302.175781 153.8125 L 344.386719 129.433594 L 369.972656 144.214844 C 372.535156 155.027344 374.148438 166.199219 374.742188 177.640625 L 359.097656 186.671875 L 359.097656 169.6875 L 344.386719 161.203125 L 329.679688 169.6875 L 329.679688 186.671875 Z M 344.386719 195.160156 " fill-opacity="1" fill-rule="nonzero"/><path fill="#66a060" d="M 352.582031 182.914062 L 352.582031 173.453125 L 344.386719 168.71875 L 336.191406 173.453125 L 336.191406 182.914062 L 344.386719 187.644531 Z M 352.582031 182.914062 " fill-opacity="1" fill-rule="nonzero"/><path fill="#333333" d="M 73.742188 153.8125 L 73.742188 218.09375 L 45.589844 202.035156 L 45.589844 169.078125 L 31.53125 160.960938 L 17.472656 169.078125 L 17.472656 202.03125 L 1.484375 211.152344 C 0.503906 203.410156 0 195.511719 0 187.5 C 0 172.820312 1.683594 158.53125 4.875 144.824219 L 31.53125 129.433594 Z M 73.742188 153.8125 " fill-opacity="1" fill-rule="nonzero"/><path fill="#6da75d" d="M 135.898438 129.429688 L 178.117188 202.550781 L 135.902344 226.925781 L 93.683594 153.804688 Z M 135.898438 129.429688 " fill-opacity="1" fill-rule="nonzero"/><path fill="#55a344" d="M 93.683594 202.554688 L 108.183594 178.917969 L 93.683594 153.808594 Z M 93.683594 202.554688 " fill-opacity="1" fill-rule="nonzero"/><path fill="#639d57" d="M 164.046875 178.179688 L 178.121094 153.808594 L 135.902344 129.429688 Z M 164.046875 178.179688 " fill-opacity="1" fill-rule="nonzero"/><path fill="#333333" d="M 253.824219 72.933594 L 253.824219 137.605469 L 239.671875 129.433594 L 197.449219 153.8125 L 197.449219 202.558594 L 239.671875 226.933594 L 281.886719 202.558594 L 281.886719 87.953125 Z M 253.742188 186.304688 L 239.671875 194.433594 L 225.59375 186.304688 L 225.59375 170.058594 L 239.671875 161.929688 L 253.742188 170.058594 Z M 253.742188 186.304688 " fill-opacity="1" fill-rule="nonzero"/><path fill="#66a060" d="M 206.652344 262.730469 C 206.652344 262.730469 205.820312 255.605469 198.199219 255.605469 C 190.578125 255.605469 185.359375 256.601562 185.359375 260.824219 C 185.359375 265.050781 200.1875 265.050781 205.824219 266.707031 C 211.457031 268.367188 216.429688 272.671875 213.945312 280.296875 C 211.457031 287.921875 203.832031 288.746094 192.070312 288.746094 C 180.304688 288.746094 177.652344 278.96875 177.652344 275.15625 L 184.277344 275.15625 C 184.277344 275.15625 183.453125 281.125 191.242188 282.121094 C 199.027344 283.109375 206.476562 283.671875 207.480469 277.648438 C 208.804688 269.6875 182.289062 273.667969 179.96875 265.878906 C 178.007812 259.304688 179.144531 250.636719 192.398438 249.308594 C 205.65625 247.980469 212.949219 253.835938 212.949219 262.566406 Z M 206.652344 262.730469 " fill-opacity="1" fill-rule="nonzero"/><path fill="#66a060" d="M 142.617188 293.796875 L 157.273438 302.253906 C 164.636719 306.507812 173.839844 301.191406 173.839844 292.691406 L 173.839844 250.582031 L 167.867188 250.582031 L 167.867188 291.027344 C 167.867188 295.675781 162.84375 298.574219 158.820312 296.253906 L 148.589844 290.347656 L 148.589844 247.179688 L 185.976562 225.597656 L 223.359375 247.179688 L 223.359375 290.347656 L 185.976562 311.929688 L 175.207031 305.714844 L 168.175781 308.550781 L 185.976562 318.828125 L 229.332031 293.792969 L 229.332031 243.734375 L 185.976562 218.699219 L 142.617188 243.734375 Z M 142.617188 293.796875 " fill-opacity="1" fill-rule="nonzero"/></svg>